PathFileType	4	(X/Y/Z)	C:/Users/beibeiliu/ov580/test_trc\sequence.32_training_dense_right.trc
DataRate	CameraRate	NumFrames	NumMarkers	Units	OrigDataRate	OrigDataStartFrame	OrigNumFrames
120	120	10	19	mm	120	172	200
Frame#	Time	ThumbCMC			ThumbMCP			ThumbIP			ThumbTip			IndexMCP			IndexPIP			IndexTip			MiddleMCP			MiddlePIP			MiddleTip			RingMCP			RingPIP			RingTip			PinkyMCP			PinkyPIP			PinkyTip			BackHand1			BackHand2			BackHand3	
		X0	Y0	Z0	X1	Y1	Z1	X2	Y2	Z2	X3	Y3	Z3	X4	Y4	Z4	X5	Y5	Z5	X6	Y6	Z6	X7	Y7	Z7	X8	Y8	Z8	X9	Y9	Z9	X10	Y10	Z10	X11	Y11	Z11	X12	Y12	Z12	X13	Y13	Z13	X14	Y14	Z14	X15	Y15	Z15	X16	Y16	Z16	X17	Y17	Z17	X18	Y18	Z18	
171	1.425	32.916	74.7842	13.4365	17.4323	68.6355	-3.68583	4.22094	70.05	-25.1602	-7.97564	68.521	-39.5099	37.4059	88.1697	-51.6989	29.1235	80.8079	-72.8723	16.8968	68.6863	-91.5297	51.0278	67.3953	-60.4877	37.1453	41.6702	-66.0565	29.2294	24.6873	-39.9046	77.21	64.9543	-54.3534	69.4278	60.5641	-79.8643	64.8511	50.3742	-100.874	96.6096	57.9137	-41.8561	101.429	58.1427	-52.8206	115.949	65.7978	-67.843	82.3539	72.8845	-9.01632	87.0692	70.4177	14.0102	62.4923	87.1728	8.63975	
172	1.43333	34.2406	72.6081	13.3775	15.4937	67.0529	-4.01417	-1.15869	68.7081	-23.0675	-10.2478	67.2685	-40.8182	32.5086	85.7089	-49.0272	19.7531	73.3688	-70.5936	9.69006	54.3475	-86.1249	50.7091	74.92	-60.1217	36.3077	52.5698	-76.7346	29.4416	26.6692	-65.072	76.2299	68.7786	-55.734	75.9893	64.5279	-75.8608	68.2863	59.3192	-98.3431	96.3883	56.0412	-35.9296	105.296	59.6709	-52.3149	114.122	68.0634	-67.2684	81.4815	73.4228	-10.1543	84.5856	72.1438	14.5598	64.4807	85.4454	7.712	
173	1.44167	34.8275	70.4281	15.3171	16.0006	64.2934	-3.31062	-1.6971	66.1282	-21.4748	-13.7986	63.8525	-38.573	27.3376	79.0128	-50.9256	19.1885	62.7302	-67.156	12.2771	37.2131	-74.3711	55.8165	76.8909	-60.3886	44.4197	65.5656	-83.925	33.1188	38.4906	-93.5305	77.2315	69.7586	-52.0013	76.5646	69.5117	-75.3199	76.4284	65.668	-99.4139	95.2327	56.0014	-35.5629	100.824	60.742	-50.567	113.619	70.0703	-62.2804	79.4874	71.2733	-7.49204	86.0114	72.2819	17.0158	58.3888	86.3985	7.5106	
174	1.45	32.4662	68.8968	17.1363	13.5222	63.1888	-5.61133	0.083797	62.0778	-19.008	-15.3703	60.754	-35.9121	27.7489	73.8942	-50.9913	17.7628	53.5615	-62.5796	13.0948	24.3542	-60.3328	57.2026	77.4743	-57.9917	50.4627	72.7669	-81.1785	40.3272	61.958	-106.652	77.9727	70.3945	-50.4399	81.0162	72.8209	-76.6696	84.6109	73.4866	-95.9059	93.7488	56.8154	-37.3418	101.452	59.639	-50.4376	113.564	69.6034	-63.229	80.0618	72.7568	-8.44593	86.6886	68.6527	16.7578	59.6846	82.7786	8.66362	
175	1.45833	31.7415	67.9451	15.3881	12.1985	62.1729	-5.25935	-3.10036	62.647	-21.134	-10.9394	59.0266	-35.8421	29.1281	71.3632	-49.1605	18.5509	47.8946	-60.1521	12.4972	20.5567	-48.7599	53.4285	79.0678	-57.6109	48.6475	77.2676	-85.0345	49.734	71.8233	-105.5	77.8397	71.5814	-52.3436	79.9718	76.2206	-73.3641	83.3974	78.9697	-89.407	95.4245	58.5452	-39.6967	100.556	62.9094	-52.7774	113.358	70.2197	-58.3066	81.9897	70.5966	-7.27405	82.4662	68.4551	17.2898	60.4126	83.8767	6.30141	
176	1.46667	32.3816	65.4573	15.8331	12.9412	60.5547	-4.58969	-3.75831	60.8012	-22.1687	-10.6097	57.6141	-38.706	29.7308	67.4951	-50.8473	17.5188	44.2722	-57.7154	15.3743	20.8121	-44.9111	53.7254	78.419	-60.902	48.579	77.9321	-82.7143	49.797	76.7192	-105.785	74.4499	75.2572	-52.9033	77.008	78.2473	-68.5628	85.5245	85.3815	-89.3005	93.3281	60.3985	-38.3252	102.6	61.9786	-48.8902	112.975	71.0145	-57.4817	79.1524	70.6697	-12.1223	83.6114	69.5404	17.2875	57.7261	80.5838	6.24893	
177	1.475	30.6269	62.0915	18.1376	11.3071	55.4672	-2.22026	0.906685	56.826	-23.9222	-15.6482	53.4121	-35.4259	24.6279	67.6293	-48.916	22.6071	40.0062	-57.362	22.2885	18.4614	-43.3638	53.1947	79.6647	-55.8644	44.3858	80.2023	-81.8405	45.2145	80.9837	-107.276	77.926	75.4643	-49.9125	79.4033	81.8454	-68.4133	81.8388	89.8995	-87.3653	94.4498	62.1217	-36.1287	98.0422	69.2305	-49.1707	109.462	81.3055	-61.498	77.9864	73.2392	-5.72701	84.4979	71.1273	18.1307	55.6768	82.0334	10.1235	
178	1.48333	33.3547	59.5287	19.2388	12.0495	52.9497	-4.35971	-3.23867	51.7846	-19.925	-14.4081	49.4699	-35.1086	25.2157	69.8456	-45.0991	22.7356	44.7094	-60.0676	25.5945	17.2798	-47.6684	49.2084	81.454	-54.0179	43.4812	81.8093	-76.6093	41.499	81.3277	-106.263	72.3502	81.2338	-50.782	77.6222	84.3717	-69.0994	77.4976	88.9795	-89.5055	90.0455	69.0218	-35.569	96.8463	76.0454	-49.3322	107.564	86.4753	-57.5612	75.3056	75.1446	-6.53532	83.2342	74.4463	17.0686	55.6987	79.9078	9.18104	
179	1.49167	31.496	60.7248	18.5608	15.7174	52.1851	-1.08116	3.50113	50.3374	-16.7302	-8.91349	48.6776	-34.1604	26.3731	72.4638	-48.9377	18.3372	51.4363	-62.1246	25.5324	27.5105	-62.5156	48.9504	84.3745	-51.1639	46.6914	83.1616	-74.5965	43.2669	82.2792	-100.671	74.451	80.5012	-49.3958	70.1171	81.7349	-73.5461	68.5372	76.0873	-96.5068	90.8447	73.7956	-38.9321	95.5295	78.3092	-49.8028	106.91	90.1843	-60.7614	77.3903	77.5547	-4.14531	83.4164	74.9575	20.762	53.7925	82.2696	12.7629	
180	1.5	33.9536	60.9477	20.8404	14.8428	52.583	3.1598	2.72822	53.5228	-18.4082	-12.0391	50.2432	-32.6205	27.383	78.3482	-42.0647	18.1397	63.8067	-66.3223	11.941	42.5607	-78.0771	49.8864	83.6912	-52.6049	45.0354	83.1698	-74.9438	45.1479	82.1779	-101.013	68	75.2479	-49.6336	66.5152	64.1692	-77.2927	59.11	49.2155	-89.4816	90.66	69.6482	-35.2137	96.9936	74.8471	-51.2398	106.835	83.1246	-63.0241	79.0562	79.752	-6.69723	84.1277	76.4512	23.9176	55.1302	83.4639	14.7091	
